<?xml version="1.0" standalone="no"?>
<!DOCTYPE svg PUBLIC "-//W3C//DTD SVG 1.1//EN" "http://www.w3.org/Graphics/SVG/1.1/DTD/svg11.dtd">
<svg width="100mm" height="100mm" xmlns="http://www.w3.org/2000/svg" version="1.1" viewBox="0 0 100 100">
  <g fill="none" stroke="black" stroke-width="2.4249812169084195" stroke-linejoin="round" stroke-linecap="round">
    <path d="M44.50000 10.16512 L45.00000 10.33188 L45.50000 10.49530 L46.00000 10.65513 L46.50000 10.81111 L47.00000 10.96300 L47.50000 11.11059 L48.00000 11.25365 L48.50000 11.39198 L49.00000 11.52541 L49.50000 11.65375 L50.00000 11.77684 L50.50000 11.89454 L51.00000 12.00672 L51.50000 12.11327 L52.00000 12.21408 L52.50000 12.30906 L53.00000 12.39816 L53.50000 12.48131 L54.00000 12.55848 L54.50000 12.62965 L55.00000 12.69480 L55.50000 12.75395 L56.00000 12.80712 L56.50000 12.85434 L57.00000 12.89566 L57.50000 12.93116 L58.00000 12.96089" />
    <path d="M39.00000 15.89284 L39.50000 16.07890 L40.00000 16.26488 L40.50000 16.45047 L41.00000 16.63533 L41.50000 16.81915 L42.00000 17.00162 L42.50000 17.18242 L43.00000 17.36126 L43.50000 17.53782 L44.00000 17.71182 L44.50000 17.88298 L45.00000 18.05103 L45.50000 18.21569 L46.00000 18.37671 L46.50000 18.53385 L47.00000 18.68687 L47.50000 18.83556 L48.00000 18.97969 L48.50000 19.11909 L49.00000 19.25356 L49.50000 19.38294 L50.00000 19.50707 L50.50000 19.62581 L51.00000 19.73903 L51.50000 19.84663 L52.00000 19.94852 L52.50000 20.04460 L53.00000 20.13483 L53.50000 20.21914 L54.00000 20.29751 L54.50000 20.36992 L55.00000 20.43637 L55.50000 20.49686 L56.00000 20.55143 L56.50000 20.60012 L57.00000 20.64298 L57.50000 20.68008 L58.00000 20.71150 L58.50000 20.73733 L59.00000 20.75767 L59.50000 20.77264 L60.00000 20.78237 L60.50000 20.78697 L61.00000 20.78659 L61.50000 20.78137 L62.00000 20.77146 L62.50000 20.75701 L63.00000 20.73816 L63.50000 20.71507 L64.00000 20.68788 L64.50000 20.65675 L65.00000 20.62180 L65.50000 20.58316" />
    <path d="M33.50000 21.64555 L34.00000 21.81387 L34.50000 21.98543 L35.00000 22.15994 L35.50000 22.33711 L36.00000 22.51664 L36.50000 22.69820 L37.00000 22.88150 L37.50000 23.06621 L38.00000 23.25202 L38.50000 23.43859 L39.00000 23.62563 L39.50000 23.81278 L40.00000 23.99975 L40.50000 24.18621 L41.00000 24.37183 L41.50000 24.55631 L42.00000 24.73933 L42.50000 24.92060 L43.00000 25.09980 L43.50000 25.27665 L44.00000 25.45086 L44.50000 25.62216 L45.00000 25.79027 L45.50000 25.95494 L46.00000 26.11592 L46.50000 26.27296 L47.00000 26.42585 L47.50000 26.57437 L48.00000 26.71831 L48.50000 26.85748 L49.00000 26.99172 L49.50000 27.12085 L50.00000 27.24473 L50.50000 27.36324 L51.00000 27.47624 L51.50000 27.58363 L52.00000 27.68533 L52.50000 27.78127 L53.00000 27.87139 L53.50000 27.95564 L54.00000 28.03401 L54.50000 28.10647 L55.00000 28.17303 L55.50000 28.23372 L56.00000 28.28856 L56.50000 28.33760 L57.00000 28.38089 L57.50000 28.41853 L58.00000 28.45058 L58.50000 28.47714 L59.00000 28.49833 L59.50000 28.51425 L60.00000 28.52505 L60.50000 28.53083 L61.00000 28.53176 L61.50000 28.52797 L62.00000 28.51960 L62.50000 28.50682 L63.00000 28.48977 L63.50000 28.46859 L64.00000 28.44345 L64.50000 28.41447 L65.00000 28.38180 L65.50000 28.34555 L66.00000 28.30584 L66.50000 28.26277 L67.00000 28.21643 L67.50000 28.16689 L68.00000 28.11425 L68.50000 28.05860 L69.00000 28.00004 L69.50000 27.93866 L70.00000 27.87457 L70.50000 27.80789 L71.00000 27.73874 L71.50000 27.66726 L72.00000 27.59358 L72.50000 27.51784" />
    <path d="M27.00000 27.58068 L27.50000 27.68957 L28.00000 27.80432 L28.50000 27.92481 L29.00000 28.05087 L29.50000 28.18234 L30.00000 28.31903 L30.50000 28.46075 L31.00000 28.60728 L31.50000 28.75841 L32.00000 28.91390 L32.50000 29.07351 L33.00000 29.23699 L33.50000 29.40406 L34.00000 29.57446 L34.50000 29.74791 L35.00000 29.92412 L35.50000 30.10280 L36.00000 30.28364 L36.50000 30.46633 L37.00000 30.65058 L37.50000 30.83606 L38.00000 31.02247 L38.50000 31.20948 L39.00000 31.39678 L39.50000 31.58405 L40.00000 31.77097 L40.50000 31.95723 L41.00000 32.14252 L41.50000 32.32654 L42.00000 32.50897 L42.50000 32.68952 L43.00000 32.86789 L43.50000 33.04381 L44.00000 33.21699 L44.50000 33.38717 L45.00000 33.55407 L45.50000 33.71746 L46.00000 33.87709 L46.50000 34.03272 L47.00000 34.18415 L47.50000 34.33117 L48.00000 34.47357 L48.50000 34.61119 L49.00000 34.74385 L49.50000 34.87141 L50.00000 34.99371 L50.50000 35.11064 L51.00000 35.22209 L51.50000 35.32796 L52.00000 35.42818 L52.50000 35.52267 L53.00000 35.61140 L53.50000 35.69432 L54.00000 35.77142 L54.50000 35.84270 L55.00000 35.90816 L55.50000 35.96784 L56.00000 36.02176 L56.50000 36.06999 L57.00000 36.11260 L57.50000 36.14965 L58.00000 36.18124 L58.50000 36.20748 L59.00000 36.22847 L59.50000 36.24434 L60.00000 36.25521 L60.50000 36.26122 L61.00000 36.26251 L61.50000 36.25924 L62.00000 36.25154 L62.50000 36.23958 L63.00000 36.22349 L63.50000 36.20343 L64.00000 36.17955 L64.50000 36.15198 L65.00000 36.12084 L65.50000 36.08628 L66.00000 36.04838 L66.50000 36.00724 L67.00000 35.96294 L67.50000 35.91557 L68.00000 35.86521 L68.50000 35.81195 L69.00000 35.75588 L69.50000 35.69712 L70.00000 35.63576 L70.50000 35.57193 L71.00000 35.50576 L71.50000 35.43738 L72.00000 35.36694 L72.50000 35.29457 L73.00000 35.22044 L73.50000 35.14468 L74.00000 35.06747 L74.50000 34.98896 L75.00000 34.90932 L75.50000 34.82871 L76.00000 34.74730 L76.50000 34.66526 L77.00000 34.58275 L77.50000 34.49995 L78.00000 34.41701 L78.50000 34.33411 L79.00000 34.25142 L79.50000 34.16909" />
    <path d="M20.50000 34.42116 L21.00000 34.45511 L21.50000 34.49526 L22.00000 34.54164 L22.50000 34.59427 L23.00000 34.65318 L23.50000 34.71836 L24.00000 34.78981 L24.50000 34.86749 L25.00000 34.95136 L25.50000 35.04137 L26.00000 35.13745 L26.50000 35.23950 L27.00000 35.34743 L27.50000 35.46112 L28.00000 35.58043 L28.50000 35.70524 L29.00000 35.83537 L29.50000 35.97066 L30.00000 36.11091 L30.50000 36.25594 L31.00000 36.40553 L31.50000 36.55946 L32.00000 36.71749 L32.50000 36.87939 L33.00000 37.04490 L33.50000 37.21375 L34.00000 37.38569 L34.50000 37.56042 L35.00000 37.73767 L35.50000 37.91715 L36.00000 38.09855 L36.50000 38.28158 L37.00000 38.46593 L37.50000 38.65130 L38.00000 38.83738 L38.50000 39.02385 L39.00000 39.21041 L39.50000 39.39675 L40.00000 39.58255 L40.50000 39.76751 L41.00000 39.95133 L41.50000 40.13371 L42.00000 40.31435 L42.50000 40.49296 L43.00000 40.66926 L43.50000 40.84298 L44.00000 41.01384 L44.50000 41.18158 L45.00000 41.34596 L45.50000 41.50673 L46.00000 41.66366 L46.50000 41.81654 L47.00000 41.96515 L47.50000 42.10929 L48.00000 42.24879 L48.50000 42.38348 L49.00000 42.51319 L49.50000 42.63779 L50.00000 42.75715 L50.50000 42.87115 L51.00000 42.97969 L51.50000 43.08269 L52.00000 43.18008 L52.50000 43.27181 L53.00000 43.35783 L53.50000 43.43813 L54.00000 43.51269 L54.50000 43.58151 L55.00000 43.64463 L55.50000 43.70207 L56.00000 43.75388 L56.50000 43.80012 L57.00000 43.84087 L57.50000 43.87621 L58.00000 43.90624 L58.50000 43.93106 L59.00000 43.95080 L59.50000 43.96557 L60.00000 43.97552 L60.50000 43.98077 L61.00000 43.98149 L61.50000 43.97780 L62.00000 43.96988 L62.50000 43.95785 L63.00000 43.94188 L63.50000 43.92212 L64.00000 43.89869 L64.50000 43.87175 L65.00000 43.84141 L65.50000 43.80779 L66.00000 43.77098 L66.50000 43.73108 L67.00000 43.68816 L67.50000 43.64230 L68.00000 43.59359 L68.50000 43.54211 L69.00000 43.48796 L69.50000 43.43126 L70.00000 43.37212 L70.50000 43.31066 L71.00000 43.24701 L71.50000 43.18131 L72.00000 43.11369 L72.50000 43.04432 L73.00000 42.97332 L73.50000 42.90087 L74.00000 42.82711 L74.50000 42.75220 L75.00000 42.67630 L75.50000 42.59957 L76.00000 42.52219 L76.50000 42.44430 L77.00000 42.36607 L77.50000 42.28767 L78.00000 42.20926 L78.50000 42.13099 L79.00000 42.05303 L79.50000 41.97552 L80.00000 41.89864 L80.50000 41.82251 L81.00000 41.74730 L81.50000 41.67315 L82.00000 41.60020 L82.50000 41.52858 L83.00000 41.45843 L83.50000 41.38987 L84.00000 41.32303 L84.50000 41.25803 L85.00000 41.19498 L85.50000 41.13398 L86.00000 41.07515" />
    <path d="M12.50000 42.25755 L13.00000 42.21193 L13.50000 42.17119 L14.00000 42.13542 L14.50000 42.10470 L15.00000 42.07910 L15.50000 42.05869 L16.00000 42.04356 L16.50000 42.03378 L17.00000 42.02944 L17.50000 42.03062 L18.00000 42.03741 L18.50000 42.04988 L19.00000 42.06812 L19.50000 42.09220 L20.00000 42.12217 L20.50000 42.15809 L21.00000 42.20001 L21.50000 42.24796 L22.00000 42.30197 L22.50000 42.36204 L23.00000 42.42819 L23.50000 42.50040 L24.00000 42.57864 L24.50000 42.66287 L25.00000 42.75304 L25.50000 42.84909 L26.00000 42.95094 L26.50000 43.05848 L27.00000 43.17162 L27.50000 43.29022 L28.00000 43.41416 L28.50000 43.54329 L29.00000 43.67743 L29.50000 43.81643 L30.00000 43.96008 L30.50000 44.10819 L31.00000 44.26056 L31.50000 44.41695 L32.00000 44.57713 L32.50000 44.74088 L33.00000 44.90792 L33.50000 45.07801 L34.00000 45.25087 L34.50000 45.42624 L35.00000 45.60383 L35.50000 45.78335 L36.00000 45.96453 L36.50000 46.14705 L37.00000 46.33062 L37.50000 46.51495 L38.00000 46.69973 L38.50000 46.88466 L39.00000 47.06944 L39.50000 47.25376 L40.00000 47.43733 L40.50000 47.61985 L41.00000 47.80102 L41.50000 47.98056 L42.00000 48.15818 L42.50000 48.33360 L43.00000 48.50656 L43.50000 48.67678 L44.00000 48.84400 L44.50000 49.00799 L45.00000 49.16850 L45.50000 49.32529 L46.00000 49.47817 L46.50000 49.62690 L47.00000 49.77131 L47.50000 49.91120 L48.00000 50.04641 L48.50000 50.17677 L49.00000 50.30215 L49.50000 50.42241 L50.00000 50.53744 L50.50000 50.64713 L51.00000 50.75140 L51.50000 50.85018 L52.00000 50.94340 L52.50000 51.03103 L53.00000 51.11303 L53.50000 51.18940 L54.00000 51.26013 L54.50000 51.32525 L55.00000 51.38478 L55.50000 51.43876 L56.00000 51.48725 L56.50000 51.53032 L57.00000 51.56806 L57.50000 51.60055 L58.00000 51.62790 L58.50000 51.65023 L59.00000 51.66766 L59.50000 51.68031 L60.00000 51.68832 L60.50000 51.69185 L61.00000 51.69102 L61.50000 51.68601 L62.00000 51.67694 L62.50000 51.66399 L63.00000 51.64729 L63.50000 51.62698 L64.00000 51.60322 L64.50000 51.57612 L65.00000 51.54581 L65.50000 51.51239 L66.00000 51.47596 L66.50000 51.43659 L67.00000 51.39436 L67.50000 51.34934 L68.00000 51.30163 L68.50000 51.25132 L69.00000 51.19851 L69.50000 51.14332 L70.00000 51.08587 L70.50000 51.02627 L71.00000 50.96467 L71.50000 50.90119 L72.00000 50.83598 L72.50000 50.76918 L73.00000 50.70094 L73.50000 50.63141 L74.00000 50.56075 L74.50000 50.48910 L75.00000 50.41663 L75.50000 50.34349 L76.00000 50.26983 L76.50000 50.19583 L77.00000 50.12163 L77.50000 50.04738 L78.00000 49.97326 L78.50000 49.89939 L79.00000 49.82595 L79.50000 49.75307 L80.00000 49.68090 L80.50000 49.60959 L81.00000 49.53927 L81.50000 49.47008 L82.00000 49.40216 L82.50000 49.33562 L83.00000 49.27060 L83.50000 49.20720 L84.00000 49.14556 L84.50000 49.08576 L85.00000 49.02793 L85.50000 48.97215 L86.00000 48.91853 L86.50000 48.86714 L87.00000 48.81807 L87.50000 48.77140 L88.00000 48.72720 L88.50000 48.68553 L89.00000 48.64645 L89.50000 48.61002 L90.00000 48.57628 L90.50000 48.54527 L91.00000 48.51704 L91.50000 48.49160 L92.00000 48.46898 L92.50000 48.44921 L93.00000 48.43228 L93.50000 48.41822" />
    <path d="M5.50000 50.90048 L6.00000 50.80501 L6.50000 50.71268 L7.00000 50.62366 L7.50000 50.53810 L8.00000 50.45618 L8.50000 50.37805 L9.00000 50.30388 L9.50000 50.23381 L10.00000 50.16798 L10.50000 50.10656 L11.00000 50.04966 L11.50000 49.99742 L12.00000 49.94996 L12.50000 49.90738 L13.00000 49.86980 L13.50000 49.83730 L14.00000 49.80996 L14.50000 49.78786 L15.00000 49.77106 L15.50000 49.75962 L16.00000 49.75357 L16.50000 49.75296 L17.00000 49.75784 L17.50000 49.76827 L18.00000 49.78429 L18.50000 49.80596 L19.00000 49.83333 L19.50000 49.86643 L20.00000 49.90531 L20.50000 49.94999 L21.00000 50.00051 L21.50000 50.05687 L22.00000 50.11907 L22.50000 50.18713 L23.00000 50.26101 L23.50000 50.34068 L24.00000 50.42612 L24.50000 50.51726 L25.00000 50.61405 L25.50000 50.71640 L26.00000 50.82422 L26.50000 50.93742 L27.00000 51.05587 L27.50000 51.17944 L28.00000 51.30800 L28.50000 51.44138 L29.00000 51.57944 L29.50000 51.72197 L30.00000 51.86880 L30.50000 52.01973 L31.00000 52.17454 L31.50000 52.33301 L32.00000 52.49492 L32.50000 52.66001 L33.00000 52.82805 L33.50000 52.99878 L34.00000 53.17194 L34.50000 53.34725 L35.00000 53.52444 L35.50000 53.70324 L36.00000 53.88335 L36.50000 54.06450 L37.00000 54.24638 L37.50000 54.42872 L38.00000 54.61122 L38.50000 54.79357 L39.00000 54.97551 L39.50000 55.15672 L40.00000 55.33692 L40.50000 55.51584 L41.00000 55.69318 L41.50000 55.86866 L42.00000 56.04203 L42.50000 56.21300 L43.00000 56.38132 L43.50000 56.54674 L44.00000 56.70902 L44.50000 56.86792 L45.00000 57.02321 L45.50000 57.17468 L46.00000 57.32213 L46.50000 57.46535 L47.00000 57.60418 L47.50000 57.73844 L48.00000 57.86798 L48.50000 57.99264 L49.00000 58.11231 L49.50000 58.22686 L50.00000 58.33619 L50.50000 58.44022 L51.00000 58.53887 L51.50000 58.63208 L52.00000 58.71981 L52.50000 58.80203 L53.00000 58.87871 L53.50000 58.94988 L54.00000 59.01552 L54.50000 59.07568 L55.00000 59.13039 L55.50000 59.17971 L56.00000 59.22370 L56.50000 59.26245 L57.00000 59.29604 L57.50000 59.32458 L58.00000 59.34817 L58.50000 59.36694 L59.00000 59.38102 L59.50000 59.39054 L60.00000 59.39564 L60.50000 59.39647 L61.00000 59.39318 L61.50000 59.38591 L62.00000 59.37483 L62.50000 59.36008 L63.00000 59.34181 L63.50000 59.32016 L64.00000 59.29525 L64.50000 59.26723 L65.00000 59.23619 L65.50000 59.20223 L66.00000 59.16545 L66.50000 59.12590 L67.00000 59.08367 L67.50000 59.03884 L68.00000 58.99150 L68.50000 58.94175 L69.00000 58.88970 L69.50000 58.83547 L70.00000 58.77917 L70.50000 58.72092 L71.00000 58.66087 L71.50000 58.59915 L72.00000 58.53589 L72.50000 58.47123 L73.00000 58.40533 L73.50000 58.33833 L74.00000 58.27038 L74.50000 58.20163 L75.00000 58.13223 L75.50000 58.06234 L76.00000 57.99209 L76.50000 57.92165 L77.00000 57.85117 L77.50000 57.78079 L78.00000 57.71067 L78.50000 57.64094 L79.00000 57.57175 L79.50000 57.50324 L80.00000 57.43555 L80.50000 57.36881 L81.00000 57.30315 L81.50000 57.23870 L82.00000 57.17558 L82.50000 57.11391 L83.00000 57.05381 L83.50000 56.99538 L84.00000 56.93872 L84.50000 56.88395 L85.00000 56.83114 L85.50000 56.78040 L86.00000 56.73180 L86.50000 56.68543 L87.00000 56.64135 L87.50000 56.59963 L88.00000 56.56034 L88.50000 56.52353" />
    <path d="M12.50000 57.60473 L13.00000 57.57584 L13.50000 57.55222 L14.00000 57.53395 L14.50000 57.52109 L15.00000 57.51369 L15.50000 57.51178 L16.00000 57.51541 L16.50000 57.52458 L17.00000 57.53930 L17.50000 57.55959 L18.00000 57.58547 L18.50000 57.61695 L19.00000 57.65404 L19.50000 57.69677 L20.00000 57.74513 L20.50000 57.79913 L21.00000 57.85877 L21.50000 57.92403 L22.00000 57.99491 L22.50000 58.07137 L23.00000 58.15338 L23.50000 58.24088 L24.00000 58.33383 L24.50000 58.43216 L25.00000 58.53578 L25.50000 58.64462 L26.00000 58.75855 L26.50000 58.87749 L27.00000 59.00128 L27.50000 59.12981 L28.00000 59.26292 L28.50000 59.40046 L29.00000 59.54224 L29.50000 59.68810 L30.00000 59.83784 L30.50000 59.99126 L31.00000 60.14814 L31.50000 60.30827 L32.00000 60.47142 L32.50000 60.63735 L33.00000 60.80582 L33.50000 60.97657 L34.00000 61.14935 L34.50000 61.32389 L35.00000 61.49993 L35.50000 61.67720 L36.00000 61.85541 L36.50000 62.03429 L37.00000 62.21357 L37.50000 62.39295 L38.00000 62.57216 L38.50000 62.75091 L39.00000 62.92893 L39.50000 63.10594 L40.00000 63.28166 L40.50000 63.45581 L41.00000 63.62814 L41.50000 63.79837 L42.00000 63.96625 L42.50000 64.13152 L43.00000 64.29395 L43.50000 64.45329 L44.00000 64.60932 L44.50000 64.76182 L45.00000 64.91057 L45.50000 65.05539 L46.00000 65.19608 L46.50000 65.33245 L47.00000 65.46436 L47.50000 65.59164 L48.00000 65.71416 L48.50000 65.83178 L49.00000 65.94440 L49.50000 66.05190 L50.00000 66.15422 L50.50000 66.25126 L51.00000 66.34298 L51.50000 66.42933 L52.00000 66.51028 L52.50000 66.58582 L53.00000 66.65594 L53.50000 66.72066 L54.00000 66.78000 L54.50000 66.83400 L55.00000 66.88272 L55.50000 66.92622 L56.00000 66.96458 L56.50000 66.99789 L57.00000 67.02624 L57.50000 67.04976 L58.00000 67.06855 L58.50000 67.08275 L59.00000 67.09248 L59.50000 67.09790 L60.00000 67.09914 L60.50000 67.09636 L61.00000 67.08970 L61.50000 67.07932 L62.00000 67.06537 L62.50000 67.04800 L63.00000 67.02734 L63.50000 67.00355 L64.00000 66.97673 L64.50000 66.94702 L65.00000 66.91452 L65.50000 66.87930 L66.00000 66.84145 L66.50000 66.80104 L67.00000 66.75814 L67.50000 66.71285 L68.00000 66.66526 L68.50000 66.61548 L69.00000 66.56362 L69.50000 66.50978 L70.00000 66.45410 L70.50000 66.39670 L71.00000 66.33770 L71.50000 66.27725 L72.00000 66.21548 L72.50000 66.15252 L73.00000 66.08853 L73.50000 66.02364 L74.00000 65.95800 L74.50000 65.89175 L75.00000 65.82504 L75.50000 65.75802 L76.00000 65.69083 L76.50000 65.62361 L77.00000 65.55651 L77.50000 65.48967 L78.00000 65.42323 L78.50000 65.35732 L79.00000 65.29208 L79.50000 65.22765 L80.00000 65.16414" />
    <path d="M20.50000 65.70644 L21.00000 65.77559 L21.50000 65.85013 L22.00000 65.93002 L22.50000 66.01519 L23.00000 66.10561 L23.50000 66.20119 L24.00000 66.30186 L24.50000 66.40755 L25.00000 66.51814 L25.50000 66.63355 L26.00000 66.75365 L26.50000 66.87832 L27.00000 67.00743 L27.50000 67.14083 L28.00000 67.27837 L28.50000 67.41987 L29.00000 67.56517 L29.50000 67.71408 L30.00000 67.86641 L30.50000 68.02195 L31.00000 68.18049 L31.50000 68.34183 L32.00000 68.50571 L32.50000 68.67193 L33.00000 68.84022 L33.50000 69.01036 L34.00000 69.18208 L34.50000 69.35513 L35.00000 69.52925 L35.50000 69.70417 L36.00000 69.87964 L36.50000 70.05538 L37.00000 70.23113 L37.50000 70.40660 L38.00000 70.58154 L38.50000 70.75568 L39.00000 70.92874 L39.50000 71.10046 L40.00000 71.27059 L40.50000 71.43885 L41.00000 71.60501 L41.50000 71.76882 L42.00000 71.93002 L42.50000 72.08839 L43.00000 72.24369 L43.50000 72.39572 L44.00000 72.54425 L44.50000 72.68908 L45.00000 72.83003 L45.50000 72.96691 L46.00000 73.09956 L46.50000 73.22780 L47.00000 73.35150 L47.50000 73.47051 L48.00000 73.58472 L48.50000 73.69402 L49.00000 73.79831 L49.50000 73.89750 L50.00000 73.99153 L50.50000 74.08034 L51.00000 74.16389 L51.50000 74.24215 L52.00000 74.31511 L52.50000 74.38276 L53.00000 74.44513 L53.50000 74.50224 L54.00000 74.55413 L54.50000 74.60084 L55.00000 74.64246 L55.50000 74.67906 L56.00000 74.71071 L56.50000 74.73754 L57.00000 74.75964 L57.50000 74.77713 L58.00000 74.79014 L58.50000 74.79881 L59.00000 74.80327 L59.50000 74.80368 L60.00000 74.80017 L60.50000 74.79291 L61.00000 74.78204 L61.50000 74.76773 L62.00000 74.75010 L62.50000 74.72932 L63.00000 74.70553 L63.50000 74.67884 L64.00000 74.64938 L64.50000 74.61727 L65.00000 74.58258 L65.50000 74.54540 L66.00000 74.50581 L66.50000 74.46386 L67.00000 74.41966 L67.50000 74.37330 L68.00000 74.32486 L68.50000 74.27447 L69.00000 74.22223 L69.50000 74.16825 L70.00000 74.11266 L70.50000 74.05559 L71.00000 73.99716 L71.50000 73.93750" />
    <path d="M31.00000 76.26920 L31.50000 76.43124 L32.00000 76.59534 L32.50000 76.76127 L33.00000 76.92878 L33.50000 77.09765 L34.00000 77.26763 L34.50000 77.43846 L35.00000 77.60990 L35.50000 77.78169 L36.00000 77.95359 L36.50000 78.12532 L37.00000 78.29664 L37.50000 78.46728 L38.00000 78.63699 L38.50000 78.80552 L39.00000 78.97262 L39.50000 79.13803 L40.00000 79.30150 L40.50000 79.46281 L41.00000 79.62170 L41.50000 79.77796 L42.00000 79.93135 L42.50000 80.08166 L43.00000 80.22869 L43.50000 80.37222 L44.00000 80.51207 L44.50000 80.64805 L45.00000 80.78000 L45.50000 80.90774 L46.00000 81.03113 L46.50000 81.15003 L47.00000 81.26431 L47.50000 81.37386 L48.00000 81.47856 L48.50000 81.57834 L49.00000 81.67311 L49.50000 81.76280 L50.00000 81.84737 L50.50000 81.92678 L51.00000 82.00101 L51.50000 82.07005 L52.00000 82.13389 L52.50000 82.19256 L53.00000 82.24609 L53.50000 82.29451 L54.00000 82.33789 L54.50000 82.37629 L55.00000 82.40978 L55.50000 82.43847 L56.00000 82.46245 L56.50000 82.48184 L57.00000 82.49674 L57.50000 82.50730 L58.00000 82.51364 L58.50000 82.51591 L59.00000 82.51425 L59.50000 82.50881 L60.00000 82.49975 L60.50000 82.48722 L61.00000 82.47137 L61.50000 82.45236 L62.00000 82.43033 L62.50000 82.40542 L63.00000 82.37776" />
    <path d="M43.00000 88.24598 L43.50000 88.37993 L44.00000 88.51001 L44.50000 88.63605 L45.00000 88.75789 L45.50000 88.87539 L46.00000 88.98843 L46.50000 89.09689 L47.00000 89.20065 L47.50000 89.29963 L48.00000 89.39374 L48.50000 89.48290 L49.00000 89.56708 L49.50000 89.64621 L50.00000 89.72026 L50.50000 89.78923 L51.00000 89.85310 L51.50000 89.91189 L52.00000 89.96561 L52.50000 90.01430 L53.00000 90.05801 L53.50000 90.09679 L54.00000 90.13072 L54.50000 90.15987 L55.00000 90.18435" />
    <path d="M95.45455 50.00000 L50.00000 95.45455 L4.54545 50.00000 L50.00000 4.54545 L95.45455 50.00000" />
  </g>
</svg>